<svg width="48" height="48" viewBox="0 0 48 48" fill="none" xmlns="http://www.w3.org/2000/svg">
<g clip-path="url(#clip0_4296_276550)">
<path d="M24 48C37.2548 48 48 37.2548 48 24C48 10.7452 37.2548 0 24 0C10.7452 0 0 10.7452 0 24C0 37.2548 10.7452 48 24 48Z" fill="#DEEFFF"/>
<path d="M41.4 31.35L39.86 25.61C40.48 24.36 40.84 22.96 40.84 21.47C40.84 16.33 36.67 12.16 31.53 12.16C26.39 12.16 22.22 16.33 22.22 21.47C22.22 26.61 26.39 30.78 31.53 30.78C33.02 30.78 34.42 30.42 35.67 29.8L41.41 31.34L41.4 31.35Z" fill="#F2F7FF" stroke="#0064FF" stroke-width="3" stroke-linecap="round" stroke-linejoin="round"/>
<path d="M6.97998 35.32L8.94998 27.98C8.15998 26.38 7.69998 24.59 7.69998 22.68C7.69998 16.09 13.04 10.76 19.62 10.76C26.2 10.76 31.54 16.1 31.54 22.68C31.54 29.26 26.2 34.6 19.62 34.6C17.72 34.6 15.92 34.14 14.32 33.35L6.97998 35.32Z" fill="#F2F7FF" stroke="#33DDFF" stroke-width="3" stroke-linecap="round" stroke-linejoin="round"/>
<path d="M15.0601 24C15.8885 24 16.5601 23.3284 16.5601 22.5C16.5601 21.6716 15.8885 21 15.0601 21C14.2316 21 13.5601 21.6716 13.5601 22.5C13.5601 23.3284 14.2316 24 15.0601 24Z" fill="#33DDFF"/>
<path d="M19.8601 24C20.6885 24 21.3601 23.3284 21.3601 22.5C21.3601 21.6716 20.6885 21 19.8601 21C19.0317 21 18.3601 21.6716 18.3601 22.5C18.3601 23.3284 19.0317 24 19.8601 24Z" fill="#33DDFF"/>
<path d="M24.6599 24C25.4883 24 26.1599 23.3284 26.1599 22.5C26.1599 21.6716 25.4883 21 24.6599 21C23.8315 21 23.1599 21.6716 23.1599 22.5C23.1599 23.3284 23.8315 24 24.6599 24Z" fill="#33DDFF"/>
</g>
<defs>
<clipPath id="clip0_4296_276550">
<rect width="48" height="48" fill="white"/>
</clipPath>
</defs>
</svg>
