<svg width="48" height="48" viewBox="0 0 48 48" fill="none" xmlns="http://www.w3.org/2000/svg">
<g clip-path="url(#clip0_4296_276466)">
<path d="M24 48C37.2548 48 48 37.2548 48 24C48 10.7452 37.2548 0 24 0C10.7452 0 0 10.7452 0 24C0 37.2548 10.7452 48 24 48Z" fill="#DEEFFF"/>
<path d="M34.5108 27.7118L16.5432 9.7442L6.00025 20.2872L23.9678 38.2547L34.5108 27.7118Z" stroke="#0064FF" stroke-width="3.13" stroke-linecap="round" stroke-linejoin="round"/>
<path d="M34.5102 27.71L42.0102 20.21L31.5402 9.73999L24.0402 17.24L20.4602 20.82C19.5302 21.75 19.5302 23.27 20.4602 24.2C21.3902 25.13 22.9002 25.13 23.8402 24.2L27.4302 20.62L34.5102 27.7V27.71Z" fill="#F2F7FF" stroke="#33DDFF" stroke-width="3.13" stroke-linecap="round" stroke-linejoin="round"/>
<path d="M24.52 31.97L27.38 34.84" stroke="#0064FF" stroke-width="3.13" stroke-linecap="round" stroke-linejoin="round"/>
<path d="M27.8701 28.62L30.7401 31.48" stroke="#0064FF" stroke-width="3.13" stroke-linecap="round" stroke-linejoin="round"/>
</g>
<defs>
<clipPath id="clip0_4296_276466">
<rect width="48" height="48" fill="white"/>
</clipPath>
</defs>
</svg>
